<svg width="22" height="22" viewBox="0 0 22 22" fill="none" xmlns="http://www.w3.org/2000/svg">
<path d="M3.02148 0.451172H16.3027C18.3926 0.451172 19.4863 1.55469 19.4863 3.66406V13.8984H9.78906C8.37305 13.8984 7.67969 14.6504 7.67969 16.0664V18.8789C7.67969 20.1777 6.9375 20.9102 5.88281 20.9102C4.76953 20.9102 3.99805 20.1582 3.99805 18.8105V2.38477C3.99805 1.39844 3.74414 0.841797 3.02148 0.451172ZM0.414062 5.31445V3.03906C0.414062 2.42383 0.902344 1.98438 1.49805 1.98438C2.08398 1.98438 2.5625 2.42383 2.5625 3.03906V6.42773H1.55664C0.873047 6.42773 0.414062 5.98828 0.414062 5.31445ZM7.88477 5.63672C7.88477 5.98828 8.14844 6.27148 8.51953 6.27148H15.1504C15.502 6.27148 15.7754 5.98828 15.7754 5.63672C15.7754 5.29492 15.502 5.03125 15.1504 5.03125H8.51953C8.14844 5.03125 7.88477 5.29492 7.88477 5.63672ZM7.88477 8.98633C7.88477 9.32812 8.14844 9.60156 8.51953 9.60156H12.0352C12.3965 9.60156 12.6602 9.32812 12.6602 8.98633C12.6602 8.63477 12.3965 8.36133 12.0352 8.36133H8.51953C8.14844 8.36133 7.88477 8.63477 7.88477 8.98633ZM8.12891 21.4473C8.91992 20.6562 9.10547 19.6797 9.10547 18.498V16.4473C9.10547 15.7734 9.56445 15.334 10.248 15.334H20.4434C21.127 15.334 21.5859 15.7734 21.5859 16.4473V18.332C21.5859 20.334 20.2969 21.4473 18.3633 21.4473H8.12891Z" fill="#1C1C1E"/>
</svg>
