<svg width="16" height="16" viewBox="0 0 16 16" fill="none" xmlns="http://www.w3.org/2000/svg">
<path d="M15.373 11.5527C15.373 12.1973 14.875 12.6953 14.2891 12.6953C13.6934 12.6953 13.2148 12.1875 13.2148 11.582V7.91016L13.3809 3.94531L11.7988 5.72266L2.52148 15C2.28711 15.2246 2.01367 15.3418 1.74023 15.3418C1.14453 15.3418 0.617188 14.7949 0.617188 14.2188C0.617188 13.9453 0.744141 13.6719 0.96875 13.4375L10.2363 4.16016L12.0137 2.59766L7.87305 2.73438H4.36719C3.77148 2.73438 3.27344 2.25586 3.27344 1.67969C3.27344 1.09375 3.73242 0.595703 4.39648 0.595703H14.2109C14.9141 0.595703 15.3633 1.06445 15.3633 1.74805L15.373 11.5527Z" fill="#1EAB4E"/>
</svg>
