<svg width="24" height="22" viewBox="0 0 24 22" fill="none" xmlns="http://www.w3.org/2000/svg">
<path d="M0.0566406 10.4609C0.0566406 10.1777 0.183594 9.88477 0.447266 9.66992L10.623 1.125C11.4727 0.412109 12.5469 0.412109 13.3965 1.125L18.0254 5.01172V3.30273C18.0254 2.86328 18.3184 2.58984 18.748 2.58984H20.0957C20.5352 2.58984 20.8184 2.86328 20.8184 3.30273V7.36523L23.5625 9.66992C23.8164 9.88477 23.9434 10.1484 23.9434 10.4805C23.9434 11.0469 23.5039 11.4082 22.9277 11.4082C22.625 11.4082 22.3516 11.2422 22.1172 11.0469L12.4395 2.91211C12.166 2.67773 11.8535 2.67773 11.5801 2.91211L1.89258 11.0469C1.64844 11.2422 1.375 11.4082 1.07227 11.4082C0.447266 11.4082 0.0566406 10.9688 0.0566406 10.4609ZM3.23047 19.2402V11.8184L11.3945 4.97266C11.7656 4.65039 12.2246 4.64062 12.6055 4.97266L20.7793 11.8184V19.2402C20.7793 20.6465 19.8906 21.4961 18.4453 21.4961H5.56445C4.10938 21.4961 3.23047 20.6465 3.23047 19.2402ZM14.5684 19.6602V13.4102C14.5684 12.9512 14.2754 12.6582 13.8164 12.6582H10.2031C9.74414 12.6582 9.44141 12.9512 9.44141 13.4102V19.6602H14.5684Z" fill="#1C1C1E"/>
</svg>
