<svg width="22" height="22" viewBox="0 0 22 22" fill="none" xmlns="http://www.w3.org/2000/svg">
<path d="M10.1113 21.3398C9.51562 21.3398 9.07617 20.9883 8.94922 20.4121L8.46094 18.3516C8.12891 18.2344 7.81641 18.1074 7.52344 17.9707L5.72656 19.084C5.23828 19.3867 4.66211 19.3379 4.26172 18.9375L3.01172 17.6777C2.60156 17.2773 2.54297 16.6816 2.86523 16.1934L3.96875 14.4062C3.83203 14.1133 3.70508 13.8008 3.60742 13.498L1.52734 13.0098C0.951172 12.8828 0.609375 12.4434 0.609375 11.8574V10.0996C0.609375 9.52344 0.951172 9.07422 1.52734 8.94727L3.58789 8.44922C3.70508 8.10742 3.83203 7.80469 3.94922 7.54102L2.8457 5.71484C2.5332 5.2168 2.57227 4.66016 2.99219 4.25L4.26172 2.99023C4.68164 2.60938 5.18945 2.55078 5.6875 2.82422L7.51367 3.94727C7.80664 3.80078 8.12891 3.67383 8.46094 3.56641L8.94922 1.48633C9.07617 0.910156 9.51562 0.558594 10.1113 0.558594H11.8984C12.4844 0.558594 12.9238 0.910156 13.0508 1.48633L13.5488 3.57617C13.8809 3.69336 14.1934 3.82031 14.4766 3.95703L16.3125 2.82422C16.8105 2.55078 17.3281 2.61914 17.7383 2.99023L19.0078 4.25C19.4277 4.66016 19.4668 5.2168 19.1543 5.71484L18.0508 7.54102C18.168 7.80469 18.3047 8.10742 18.4121 8.44922L20.4727 8.94727C21.0488 9.07422 21.3906 9.52344 21.3906 10.0996V11.8574C21.3906 12.4434 21.0488 12.8828 20.4727 13.0098L18.3926 13.498C18.2949 13.8008 18.168 14.1133 18.0312 14.4062L19.1348 16.1934C19.457 16.6816 19.3984 17.2773 18.998 17.6777L17.7383 18.9375C17.3379 19.3379 16.7617 19.3867 16.2832 19.084L14.4766 17.9707C14.1836 18.1074 13.8711 18.2344 13.5391 18.3516L13.0508 20.4121C12.9238 20.9883 12.4844 21.3398 11.8984 21.3398H10.1113ZM11 14.3672C12.8848 14.3672 14.418 12.8242 14.418 10.9395C14.418 9.07422 12.8848 7.54102 11 7.54102C9.125 7.54102 7.5918 9.07422 7.5918 10.9395C7.5918 12.8242 9.125 14.3672 11 14.3672Z" fill="#1C1C1E"/>
</svg>
