<svg width="16" height="16" viewBox="0 0 16 16" fill="none" xmlns="http://www.w3.org/2000/svg">
<path d="M0.617188 4.38477C0.617188 3.74023 1.11523 3.24219 1.70117 3.24219C2.29688 3.24219 2.77539 3.75 2.77539 4.35547V8.02734L2.60938 11.9922L4.19141 10.2148L13.4688 0.9375C13.7031 0.712891 13.9766 0.595703 14.25 0.595703C14.8457 0.595703 15.373 1.14258 15.373 1.71875C15.373 1.99219 15.2461 2.26562 15.0215 2.5L5.75391 11.7773L3.97656 13.3398L8.11719 13.2031H11.623C12.2188 13.2031 12.7168 13.6816 12.7168 14.2578C12.7168 14.8438 12.2578 15.3418 11.5938 15.3418H1.7793C1.07617 15.3418 0.626953 14.873 0.626953 14.1895L0.617188 4.38477Z" fill="#FF3B30"/>
</svg>
